<svg width="20" height="21" viewBox="0 0 20 21" fill="none" xmlns="http://www.w3.org/2000/svg">
<path d="M18.5603 7.23071C19.1174 8.16835 19.483 9.20715 19.6361 10.287C19.7891 11.3669 19.7265 12.4663 19.4519 13.5219C19.1773 14.5774 18.6962 15.568 18.0363 16.4363C17.3764 17.3047 16.5509 18.0336 15.6075 18.5809C14.6641 19.1281 13.6215 19.4829 12.5401 19.6247C11.4587 19.7665 10.3599 19.6924 9.30736 19.4068C8.25477 19.1212 7.26925 18.6297 6.40782 17.9608C5.54639 17.2919 4.82614 16.4588 4.28873 15.5098L0.451547 8.86384C0.269021 8.52066 0.226839 8.12003 0.33389 7.74636C0.44094 7.37269 0.688863 7.05517 1.02542 6.8607C1.36197 6.66623 1.76088 6.61 2.13808 6.70385C2.51527 6.79771 2.84131 7.03432 3.04748 7.36384L4.78748 10.3751C4.83673 10.4604 4.9023 10.5352 4.98045 10.5952C5.05859 10.6551 5.14779 10.6991 5.24294 10.7247C5.33809 10.7502 5.43733 10.7567 5.535 10.7438C5.63267 10.731 5.72685 10.699 5.81217 10.6498C5.89749 10.6005 5.97227 10.535 6.03225 10.4568C6.09223 10.3787 6.13623 10.2895 6.16174 10.1943C6.18724 10.0992 6.19376 9.99993 6.18091 9.90226C6.16806 9.80459 6.13611 9.71041 6.08686 9.62509L2.40623 3.25009C2.22371 2.90691 2.18153 2.50628 2.28858 2.13261C2.39563 1.75894 2.64355 1.44142 2.98011 1.24695C3.31666 1.05248 3.71556 0.996246 4.09276 1.0901C4.46996 1.18396 4.796 1.42057 5.00217 1.75009L8.68748 8.12509C8.73528 8.2131 8.80021 8.29065 8.87846 8.35316C8.95671 8.41568 9.04669 8.46188 9.14309 8.48906C9.23949 8.51623 9.34035 8.52382 9.43973 8.51138C9.53911 8.49894 9.63499 8.46673 9.72171 8.41663C9.80844 8.36654 9.88425 8.29958 9.94468 8.21971C10.0051 8.13984 10.0489 8.04868 10.0736 7.9516C10.0982 7.85452 10.1031 7.7535 10.0881 7.65448C10.073 7.55546 10.0383 7.46046 9.98592 7.37509L7.17342 2.50009C6.98033 2.15594 6.93063 1.74956 7.0351 1.36902C7.13957 0.988481 7.38978 0.664436 7.73153 0.467112C8.07327 0.269788 8.479 0.21508 8.8608 0.314844C9.2426 0.414609 9.56971 0.660808 9.77123 1.00009L13.5625 7.57384C12.7242 8.41869 12.2526 9.5599 12.25 10.7501C12.2472 11.7242 12.5633 12.6725 13.15 13.4501C13.2085 13.5306 13.2824 13.5986 13.3675 13.6502C13.4525 13.7018 13.547 13.736 13.6454 13.7508C13.7437 13.7655 13.8441 13.7606 13.9405 13.7362C14.037 13.7118 14.1276 13.6685 14.2072 13.6087C14.2867 13.5489 14.3535 13.4739 14.4038 13.3881C14.4541 13.3022 14.4868 13.2072 14.5 13.1086C14.5132 13.01 14.5067 12.9098 14.4807 12.8137C14.4548 12.7177 14.4101 12.6277 14.349 12.5492C14.1118 12.2324 13.9396 11.8718 13.8423 11.4883C13.745 11.1047 13.7246 10.7056 13.7822 10.3141C13.8398 9.92255 13.9743 9.54629 14.1779 9.20697C14.3816 8.86765 14.6503 8.57197 14.9687 8.33696C15.1168 8.2274 15.2194 8.06718 15.2569 7.88685C15.2944 7.70651 15.2643 7.51868 15.1722 7.35915L14.0978 5.50009C13.9047 5.15594 13.855 4.74956 13.9595 4.36902C14.0639 3.98848 14.3142 3.66444 14.6559 3.46711C14.9976 3.26979 15.4034 3.21508 15.7852 3.31484C16.167 3.41461 16.4941 3.66081 16.6956 4.00009L18.5603 7.23071ZM15.8069 1.88696C16.3324 2.02544 16.8251 2.26698 17.2564 2.59756C17.6877 2.92813 18.0491 3.34115 18.3194 3.81259L18.3503 3.86603C18.4498 4.03833 18.6136 4.16408 18.8058 4.21559C18.9009 4.2411 19.0001 4.24761 19.0978 4.23477C19.1955 4.22192 19.2897 4.18996 19.375 4.14071C19.4603 4.09147 19.5351 4.0259 19.5951 3.94775C19.655 3.86961 19.699 3.78041 19.7245 3.68526C19.7501 3.59011 19.7566 3.49087 19.7437 3.3932C19.7309 3.29553 19.6989 3.20134 19.6497 3.11603L19.6187 3.06259C19.2501 2.41991 18.7575 1.85689 18.1694 1.40625C17.5813 0.955616 16.9095 0.626351 16.1931 0.437589C16.0015 0.388031 15.798 0.416248 15.6271 0.51609C15.4561 0.615931 15.3316 0.779298 15.2806 0.970574C15.2297 1.16185 15.2564 1.36552 15.3549 1.53718C15.4535 1.70885 15.616 1.83458 15.8069 1.88696ZM5.46061 19.1613C4.48876 18.3944 3.67254 17.4486 3.05592 16.3751C3.00668 16.2898 2.94111 16.215 2.86296 16.155C2.78481 16.095 2.69562 16.051 2.60047 16.0255C2.50532 16 2.40607 15.9935 2.3084 16.0063C2.21074 16.0192 2.11655 16.0512 2.03123 16.1004C1.94592 16.1496 1.87113 16.2152 1.81116 16.2934C1.75118 16.3715 1.70718 16.4607 1.68167 16.5559C1.65616 16.651 1.64965 16.7502 1.6625 16.8479C1.67534 16.9456 1.7073 17.0398 1.75655 17.1251C2.46834 18.3634 3.41024 19.4542 4.53155 20.3388C4.68794 20.4592 4.88545 20.513 5.08127 20.4887C5.27709 20.4644 5.45544 20.3639 5.57767 20.209C5.6999 20.0541 5.75615 19.8572 5.73424 19.6611C5.71233 19.465 5.61401 19.2854 5.46061 19.1613Z" fill="#1E293B"/>
</svg>
